<?xml version="1.0" encoding="UTF-8" standalone="no" ?>
<!DOCTYPE svg PUBLIC "-//W3C//DTD SVG 1.1//EN" "http://www.w3.org/Graphics/SVG/1.1/DTD/svg11.dtd">
<svg xmlns="http://www.w3.org/2000/svg" xmlns:xlink="http://www.w3.org/1999/xlink" version="1.1" width="1080" height="1080" viewBox="0 0 1080 1080" xml:space="preserve">
<desc>Created with Fabric.js 5.2.4</desc>
<defs>
</defs>
<g transform="matrix(1 0 0 1 540 540)" id="cc7f145b-b227-489b-a7aa-8324be07ccf3"  >
<rect style="stroke: none; stroke-width: 1; stroke-dasharray: none; stroke-linecap: butt; stroke-dashoffset: 0; stroke-linejoin: miter; stroke-miterlimit: 4; fill: rgb(255,255,255); fill-rule: nonzero; opacity: 1; visibility: hidden;" vector-effect="non-scaling-stroke"  x="-540" y="-540" rx="0" ry="0" width="1080" height="1080" />
</g>
<g transform="matrix(1 0 0 1 540 540)" id="cd867d07-7523-4c15-a183-27823efc14a0"  >
</g>
<g transform="matrix(1 0 0 1 540 540)" id="ccb9dc7d-7501-4a36-a62f-54755497436c"  >
<path style="stroke: rgb(0,0,0); stroke-width: 0; stroke-dasharray: none; stroke-linecap: butt; stroke-dashoffset: 0; stroke-linejoin: miter; stroke-miterlimit: 4; fill: rgb(38,38,38); fill-rule: nonzero; opacity: 1;" vector-effect="non-scaling-stroke"  transform=" translate(-419.99, -160.66)" d="M 64.76 49.108 C 48.56 55.893 30.730000000000004 75.06299999999999 25.10000000000001 99.125 C 17.97200000000001 129.612 47.63400000000001 142.505 50.06700000000001 138.277 C 52.93000000000001 133.30999999999997 44.75200000000001 131.63 43.06700000000001 115.81199999999998 C 40.891000000000005 95.38199999999998 50.38900000000001 72.55199999999999 62.343 62.53599999999998 C 64.565 60.67599999999998 64.459 63.26599999999998 64.459 68.05599999999998 L 63.986000000000004 169.58599999999998 C 63.986000000000004 191.30599999999998 63.089000000000006 198.166 61.478 204.94199999999998 C 59.845 211.80999999999997 57.221000000000004 216.45199999999997 59.21 218.23799999999997 C 61.432 220.23799999999997 70.92 215.48099999999997 76.41 207.81599999999997 C 82.996 198.62299999999996 85.3 187.58299999999997 85.715 175.59299999999996 C 86.215 161.13999999999996 86.19500000000001 138.20599999999996 86.215 125.12299999999996 L 86.015 56.87299999999996 C 85.915 51.69299999999996 71.547 46.25799999999996 64.767 49.09799999999996 M 640.394 150.75099999999998 C 639.871 162.04299999999998 637.372 170.86799999999997 634.27 177.09399999999997 C 628.265 189.14599999999996 615.803 192.88799999999998 610.512 175.56399999999996 C 607.6289999999999 166.11999999999998 607.4939999999999 150.34799999999996 609.5669999999999 137.16899999999995 C 611.6669999999999 123.74399999999996 617.5689999999998 113.60399999999996 627.3269999999999 114.51899999999995 C 636.9499999999999 115.42299999999994 641.4549999999999 127.82299999999995 640.3949999999999 150.75199999999995 z M 478.15 220.81 C 478.02 239.572 475.06699999999995 256.022 468.73499999999996 260.81 C 459.75499999999994 267.585 447.68299999999994 262.503 450.18299999999994 248.812 C 452.3949999999999 236.697 462.85299999999995 224.32500000000002 478.17599999999993 209.20800000000003 L 478.15099999999995 220.82000000000002 z M 475.697 150.64499999999998 C 475.147 160.92899999999997 472.482 171.26099999999997 469.573 177.099 C 463.56899999999996 189.15099999999998 451.017 192.91899999999998 445.815 175.569 C 442.258 163.714 443.11 148.37099999999998 444.87 138.70399999999998 C 447.154 126.16099999999997 452.69 114.52399999999997 462.63 114.52399999999997 C 472.295 114.52399999999997 477.06 125.12699999999997 475.698 150.64599999999996 z M 381.714 150.48799999999997 C 381.124 161.37999999999997 379 170.48599999999996 375.59 177.09799999999996 C 369.41999999999996 189.06799999999996 357.215 192.86299999999994 351.832 175.56799999999996 C 347.952 163.09599999999995 349.272 146.09099999999995 350.887 136.90499999999997 C 353.283 123.27299999999997 359.281 113.60799999999998 368.647 114.52499999999998 C 378.267 115.46499999999997 382.943 127.82799999999997 381.715 150.48999999999998 z M 812.42 163.21 C 810.068 163.21 808.995 165.63400000000001 808.108 169.714 C 805.0279999999999 183.901 801.7919999999999 187.114 797.608 187.114 C 792.9449999999999 187.114 788.755 180.089 787.678 166.02700000000002 C 786.832 154.97000000000003 786.968 134.613 788.05 114.36400000000002 C 788.27 110.20400000000002 787.1229999999999 106.08700000000002 775.9639999999999 102.03400000000002 C 771.1619999999999 100.29000000000002 764.1819999999999 97.72400000000002 760.707 106.11200000000002 C 750.887 129.812 747.047 148.62900000000002 746.1419999999999 156.27200000000002 C 746.0949999999999 156.668 745.6099999999999 156.74800000000002 745.525 155.824 C 744.949 149.702 743.661 138.577 743.501 115.20200000000001 C 743.471 110.64200000000001 742.504 106.76000000000002 737.471 103.58200000000001 C 734.205 101.52000000000001 724.287 97.87200000000001 720.716 102.212 C 717.622 105.762 714.039 115.312 710.316 126.632 L 705.182 142.05700000000002 L 705.258 107.81400000000002 C 705.274 104.26100000000002 702.8380000000001 103.07800000000002 702.1030000000001 102.86400000000002 C 698.796 101.90400000000002 692.2800000000001 100.30000000000001 689.503 100.30000000000001 C 686.09 100.30000000000001 685.255 102.20800000000001 685.255 104.98700000000001 L 684.715 160.274 L 684.725 163.464 C 682.837 173.852 676.715 187.954 670.058 187.954 C 663.393 187.954 660.258 182.059 660.258 155.114 C 660.258 139.39600000000002 660.73 132.561 660.962 121.194 L 661.342 108.476 C 661.292 104.976 655.242 103.213 652.4259999999999 102.56099999999999 C 649.5959999999999 101.904 647.1389999999999 101.64899999999999 645.2189999999999 101.758 C 642.502 101.911 640.579 103.69399999999999 640.579 106.145 L 640.5939999999999 109.959 C 637.0939999999999 104.459 631.467 100.63300000000001 627.722 99.524 C 617.636 96.529 607.112 99.184 599.172 110.291 C 592.8620000000001 119.11699999999999 589.059 129.114 587.572 143.477 C 586.478 153.977 586.835 164.625 588.78 173.63 C 586.43 183.79 582.067 187.954 577.29 187.954 C 570.3539999999999 187.954 565.3259999999999 176.63400000000001 565.91 157.054 C 566.295 144.176 568.872 135.138 571.6899999999999 122.064 C 572.89 116.49 571.915 113.57199999999999 569.468 110.776 C 567.223 108.211 562.4399999999999 106.901 555.564 108.51299999999999 C 550.6659999999999 109.663 543.664 110.898 537.257 111.847 C 537.257 111.847 537.6439999999999 110.30499999999999 537.9609999999999 107.585 C 539.627 93.32499999999999 524.1309999999999 94.481 519.1859999999999 99.035 C 516.2359999999999 101.755 514.2259999999999 104.96199999999999 513.463 110.729 C 512.2529999999999 119.881 519.718 124.197 519.718 124.197 C 517.2679999999999 135.397 511.26599999999996 150.051 505.068 160.637 C 501.748 166.309 499.20799999999997 170.513 495.931 174.981 L 495.904 169.998 L 496.281 121.198 L 496.664 108.61399999999999 C 496.627 106.05399999999999 495.132 105.088 492.024 103.86399999999999 C 489.274 102.782 486.024 102.032 482.654 101.77099999999999 C 478.399 101.439 475.834 103.69599999999998 475.902 106.36499999999998 C 475.91499999999996 106.86899999999999 475.91499999999996 109.96299999999998 475.91499999999996 109.96299999999998 C 472.41499999999996 104.46299999999998 466.787 100.63699999999997 463.04299999999995 99.52799999999998 C 452.95699999999994 96.53399999999998 442.43299999999994 99.18799999999997 434.49299999999994 110.29499999999997 C 428.18499999999995 119.12099999999998 424.05299999999994 131.50699999999998 422.8929999999999 143.37099999999998 C 421.7929999999999 154.42899999999997 422.00299999999993 163.82599999999996 423.4899999999999 171.74099999999999 C 421.8859999999999 179.66799999999998 417.2749999999999 187.957 412.0619999999999 187.957 C 405.3969999999999 187.957 401.60399999999987 182.06199999999998 401.60399999999987 155.117 C 401.60399999999987 139.399 402.07599999999985 132.564 402.3079999999999 121.19699999999999 L 402.6879999999999 108.47899999999998 C 402.63799999999986 104.97899999999998 396.58799999999985 103.21599999999998 393.7719999999999 102.56299999999999 C 390.82599999999985 101.88299999999998 388.2719999999999 101.63099999999999 386.3289999999999 101.77499999999999 C 383.7519999999999 101.96699999999998 381.9389999999999 104.27499999999999 381.9389999999999 105.99499999999999 L 381.9389999999999 109.96099999999998 C 378.4389999999999 104.46099999999998 372.8119999999999 100.63499999999999 369.0669999999999 99.52599999999998 C 358.9809999999999 96.53199999999998 348.5149999999999 99.22899999999998 340.5169999999999 110.29299999999998 C 335.3019999999999 117.50799999999998 331.07999999999987 125.50599999999997 328.91699999999986 143.21299999999997 C 328.2889999999999 148.32999999999996 328.0119999999999 153.12099999999995 328.04699999999985 157.59999999999997 C 325.96699999999987 170.31799999999996 316.78299999999984 184.97599999999997 309.26899999999983 184.97599999999997 C 304.87199999999984 184.97599999999997 300.68499999999983 176.44799999999998 300.68499999999983 158.27399999999997 C 300.68499999999983 134.06399999999996 302.1829999999998 99.59699999999998 302.43699999999984 96.27399999999997 L 313.7669999999998 96.09099999999997 C 318.50199999999984 96.03899999999996 322.7909999999998 96.15099999999997 329.0969999999998 95.82799999999996 C 332.2599999999998 95.66799999999996 335.3069999999998 84.31399999999996 332.04299999999984 82.90799999999996 C 330.5629999999998 82.27199999999996 320.10499999999985 81.71499999999996 315.95899999999983 81.62799999999996 C 312.47299999999984 81.54799999999996 302.76899999999983 80.83099999999996 302.76899999999983 80.83099999999996 L 303.8419999999998 55.53599999999996 C 304.01399999999984 53.521999999999956 301.4079999999998 52.48599999999996 299.9119999999998 51.85599999999996 C 296.2779999999998 50.31899999999996 293.0269999999998 49.582999999999956 289.1719999999998 48.78899999999996 C 283.8479999999998 47.69099999999996 281.4319999999998 48.76499999999996 280.9599999999998 53.25899999999996 C 280.2599999999998 60.07899999999996 279.8799999999998 80.05499999999995 279.8799999999998 80.05499999999995 C 275.97299999999984 80.05499999999995 262.6259999999998 79.29099999999995 258.71799999999985 79.29099999999995 C 255.08799999999985 79.29099999999995 251.16799999999984 94.90799999999996 256.1879999999999 95.10099999999996 L 278.7039999999999 95.72099999999996 L 278.41899999999987 144.90799999999996 C 274.74599999999987 164.05099999999996 261.80899999999986 174.39199999999997 261.80899999999986 174.39199999999997 C 264.5869999999999 161.72799999999998 258.91199999999986 152.21799999999996 248.68899999999985 144.16699999999997 C 244.92299999999986 141.19999999999996 237.48899999999986 135.58399999999997 229.16899999999984 129.42999999999998 C 229.16899999999984 129.42999999999998 233.98699999999985 124.68199999999997 238.26899999999983 115.12999999999998 C 241.29599999999982 108.36299999999999 241.42699999999982 100.61999999999998 233.99699999999984 98.91199999999998 C 221.71899999999985 96.08899999999998 211.59699999999984 105.10499999999998 208.57699999999983 114.73199999999997 C 206.23699999999982 122.18899999999996 207.48499999999981 127.72199999999997 212.06699999999984 133.47199999999998 C 212.40199999999984 133.89199999999997 212.76399999999984 134.32199999999997 213.13899999999984 134.75199999999998 C 210.36699999999985 140.094 206.55899999999983 147.28599999999997 203.33599999999984 152.86199999999997 C 194.38599999999985 168.34699999999998 187.62399999999985 180.59499999999997 182.51599999999985 180.59499999999997 C 178.43099999999984 180.59499999999997 178.48599999999985 168.15999999999997 178.48599999999985 156.51699999999997 C 178.48599999999985 146.47999999999996 179.22599999999986 131.38999999999996 179.81899999999985 115.76699999999997 C 180.01499999999984 110.59999999999997 177.43099999999984 107.65699999999997 173.09899999999985 104.98999999999997 C 170.46899999999985 103.36999999999996 164.85099999999986 100.18599999999996 161.59899999999985 100.18599999999996 C 156.72899999999984 100.18599999999996 142.68399999999986 100.84799999999997 129.41199999999986 139.23999999999995 C 127.73899999999986 144.07999999999996 124.45199999999987 152.89599999999996 124.45199999999987 152.89599999999996 L 124.73499999999987 106.72899999999996 C 124.73499999999987 105.64699999999996 124.15899999999988 104.59899999999996 122.83799999999987 103.88399999999996 C 120.60199999999986 102.66999999999996 114.63799999999986 100.18599999999996 109.31799999999987 100.18599999999996 C 106.78799999999987 100.18599999999996 105.52399999999987 101.36299999999997 105.52399999999987 103.70899999999996 L 105.06099999999988 175.93899999999996 C 105.06099999999988 181.42699999999996 105.20399999999988 187.83899999999997 105.74699999999989 190.62899999999996 C 106.28999999999989 193.41899999999995 107.16299999999988 195.71299999999997 108.24699999999989 197.06899999999996 C 109.33099999999989 198.42499999999995 110.58299999999988 199.45699999999997 112.64899999999989 199.88299999999995 C 114.57199999999989 200.27899999999994 125.09899999999989 201.63099999999994 125.64699999999989 197.60799999999995 C 126.3029999999999 192.78799999999995 126.3269999999999 187.57099999999994 131.85699999999989 168.12199999999996 C 140.46299999999988 137.84199999999996 151.68399999999988 123.06699999999995 156.9589999999999 117.81999999999996 C 157.8809999999999 116.90299999999996 158.93399999999988 116.84799999999997 158.8839999999999 118.34999999999997 L 157.3339999999999 155.66999999999996 C 155.90399999999988 193.38499999999996 162.76599999999988 200.37599999999998 172.57099999999988 200.37599999999998 C 180.07099999999988 200.37599999999998 190.64599999999987 192.92299999999997 201.9709999999999 174.05599999999998 L 220.8289999999999 142.46099999999998 L 231.9719999999999 152.72099999999998 C 240.9249999999999 161.21799999999996 243.8639999999999 169.29299999999998 241.9139999999999 176.95099999999996 C 240.4219999999999 182.80699999999996 234.8039999999999 188.85099999999997 224.8069999999999 182.97599999999997 C 221.89299999999992 181.26599999999996 220.64899999999992 179.94299999999998 217.7189999999999 178.01299999999998 C 216.1449999999999 176.97699999999998 213.7409999999999 176.66699999999997 212.29899999999992 177.753 C 208.55599999999993 180.575 206.4149999999999 184.165 205.19199999999992 188.60999999999999 C 204.00199999999992 192.93499999999997 208.33399999999992 195.22 212.82399999999993 197.20999999999998 C 216.68999999999994 198.92999999999998 224.99899999999994 200.48999999999998 230.29799999999992 200.66799999999998 C 250.9449999999999 201.36799999999997 267.4839999999999 190.69799999999998 278.99799999999993 163.20299999999997 C 281.05799999999994 186.94899999999998 289.83099999999996 200.38699999999997 305.06999999999994 200.38699999999997 C 315.25999999999993 200.38699999999997 325.47399999999993 187.21699999999998 329.93999999999994 174.26099999999997 C 331.2219999999999 179.54099999999997 333.11999999999995 184.13499999999996 335.57199999999995 188.01799999999997 C 347.31499999999994 206.62399999999997 370.09599999999995 202.61799999999997 381.53899999999993 186.81999999999996 C 385.07699999999994 181.93799999999996 385.61599999999993 180.18399999999997 385.61599999999993 180.18399999999997 C 387.28599999999994 195.10199999999998 399.2989999999999 200.31399999999996 406.17599999999993 200.31399999999996 C 413.87999999999994 200.31399999999996 421.83399999999995 196.67199999999997 427.40899999999993 184.12099999999995 C 428.06199999999995 185.48299999999995 428.7749999999999 186.78399999999996 429.5539999999999 188.01699999999994 C 441.2969999999999 206.62299999999993 464.0779999999999 202.61699999999993 475.5209999999999 186.81899999999993 C 476.00466729702174 186.1547008656128 476.47706814470877 185.4822714303377 476.9379999999999 184.8019999999999 L 477.2739999999999 194.60199999999995 L 466.73899999999986 204.26399999999995 C 449.10199999999986 220.44399999999996 435.69199999999984 232.72099999999995 434.70499999999987 247.01699999999994 C 433.43899999999985 265.24699999999996 448.22199999999987 272.0199999999999 459.40699999999987 272.9069999999999 C 471.28499999999985 273.8499999999999 481.4569999999999 267.2869999999999 487.7069999999999 258.1069999999999 C 493.2069999999999 250.02499999999992 496.8049999999999 232.6289999999999 496.5409999999999 215.4489999999999 L 496.12599999999986 190.4449999999999 C 502.32599999999985 183.24499999999992 509.30899999999986 174.1479999999999 515.7399999999999 163.4979999999999 C 522.7479999999999 151.8919999999999 530.2599999999999 136.3059999999999 534.1039999999999 124.1759999999999 C 534.1039999999999 124.1759999999999 540.6289999999999 124.2319999999999 547.5939999999999 123.7759999999999 C 549.8219999999999 123.6309999999999 550.4609999999999 124.0859999999999 550.05 125.71799999999989 C 549.553 127.69099999999989 541.252 159.70799999999988 548.827 181.0379999999999 C 554.013 195.6379999999999 565.702 200.3379999999999 572.633 200.3379999999999 C 580.7460000000001 200.3379999999999 588.5070000000001 194.2109999999999 592.666 185.11299999999991 C 593.166 186.12699999999992 593.691 187.10899999999992 594.263 188.0149999999999 C 606.0060000000001 206.6209999999999 628.707 202.5919999999999 640.23 186.8169999999999 C 642.83 183.2569999999999 644.307 180.1809999999999 644.307 180.1809999999999 C 646.78 195.6209999999999 658.787 200.3909999999999 665.664 200.3909999999999 C 672.828 200.3909999999999 679.627 197.4539999999999 685.144 184.4009999999999 C 685.374 190.1479999999999 685.737 194.8469999999999 686.3100000000001 196.3279999999999 C 686.6600000000001 197.2339999999999 688.695 198.3709999999999 690.176 198.92099999999988 C 696.729 201.35099999999989 703.413 200.20099999999988 705.8760000000001 199.70099999999988 C 707.589 199.35399999999987 708.926 197.98099999999988 709.1060000000001 194.43099999999987 C 709.5860000000001 185.11299999999986 709.291 169.45699999999988 712.1060000000001 157.82099999999986 C 716.8480000000001 138.29399999999987 721.2710000000001 130.72099999999986 723.3690000000001 126.97099999999986 C 724.5430000000001 124.87099999999987 725.8690000000001 124.52299999999987 725.9170000000001 126.74699999999986 C 726.0170000000002 131.24699999999984 726.2400000000001 144.45699999999985 728.0770000000001 162.20999999999987 C 729.4270000000001 175.26499999999987 731.2270000000001 182.98199999999986 732.613 185.42399999999986 C 736.566 192.40799999999987 741.447 192.73899999999986 745.413 192.73899999999986 C 747.943 192.73899999999986 753.23 192.03899999999987 752.7570000000001 187.59599999999986 C 752.527 185.42999999999986 752.9300000000001 172.04199999999986 757.605 152.80399999999986 C 760.658 140.24099999999987 765.7470000000001 128.88999999999987 767.583 124.73999999999987 C 768.26 123.20999999999987 768.5749999999999 124.41599999999987 768.563 124.64999999999986 C 768.176 133.30199999999985 767.309 161.59999999999985 770.833 177.07699999999986 C 775.611 198.04399999999987 789.433 200.38999999999984 794.2479999999999 200.38999999999984 C 804.53 200.38999999999984 812.938 192.56999999999985 815.7719999999999 171.98999999999984 C 816.4549999999999 167.03699999999984 815.444 163.21299999999985 812.4169999999999 163.21299999999985" stroke-linecap="round" />
</g>
</svg>